<svg xmlns="http://www.w3.org/2000/svg" viewBox="0 0 512 512">
  <defs>
    <linearGradient id="bg" x1="0" y1="0" x2="1" y2="1">
      <stop offset="0" stop-color="#F9F4EB"/>
      <stop offset="1" stop-color="#EFE4D3"/>
    </linearGradient>
    <linearGradient id="leaf" x1="0" y1="0" x2="1" y2="1">
      <stop offset="0" stop-color="#8E9C83"/>
      <stop offset="1" stop-color="#6F7F66"/>
    </linearGradient>
  </defs>
  <rect width="512" height="512" rx="118" fill="url(#bg)"/>
  <rect x="14" y="14" width="484" height="484" rx="106" fill="none" stroke="#C9A96A" stroke-opacity="0.55" stroke-width="3"/>
  <!-- botanical sprig -->
  <g fill="none" stroke="#79876E" stroke-width="14" stroke-linecap="round">
    <path d="M256 388 C 254 300, 258 220, 256 150"/>
    <path d="M256 330 C 216 318, 190 288, 184 250 C 224 258, 250 286, 256 330 Z" fill="url(#leaf)" stroke="none"/>
    <path d="M256 262 C 296 250, 322 220, 328 182 C 288 190, 262 218, 256 262 Z" fill="url(#leaf)" stroke="none"/>
  </g>
  <!-- droplet crown -->
  <path d="M256 96 C 256 96 226 132 226 152 C 226 169 239 182 256 182 C 273 182 286 169 286 152 C 286 132 256 96 256 96 Z" fill="#D8A796"/>
  <!-- base line -->
  <path d="M176 412 H 336" stroke="#B08D57" stroke-width="8" stroke-linecap="round" opacity="0.8"/>
</svg>
